<svg xmlns="http://www.w3.org/2000/svg" viewBox="0 0 240 100" width="240" height="100">
  <rect width="240" height="100" fill="#faf7f2" rx="8"/>
  <line x1="10" y1="35" x2="230" y2="35" stroke="#e8ddd0" stroke-width="1.5"/>
  <line x1="10" y1="65" x2="230" y2="65" stroke="#e8ddd0" stroke-width="1.5"/>
  <polyline points="20,65 40,35 60,65 80,35 100,65 120,35 140,65 160,35 180,65 200,35 220,65"
    fill="none" stroke="#5C7A4E" stroke-width="2.5" stroke-linejoin="round" stroke-linecap="round"/>
  <circle cx="20"  cy="65" r="3" fill="#5C7A4E"/>
  <circle cx="40"  cy="35" r="3" fill="#5C7A4E"/>
  <circle cx="60"  cy="65" r="3" fill="#5C7A4E"/>
  <circle cx="80"  cy="35" r="3" fill="#5C7A4E"/>
  <circle cx="100" cy="65" r="3" fill="#5C7A4E"/>
  <circle cx="120" cy="35" r="3" fill="#5C7A4E"/>
  <circle cx="140" cy="65" r="3" fill="#5C7A4E"/>
  <circle cx="160" cy="35" r="3" fill="#5C7A4E"/>
  <circle cx="180" cy="65" r="3" fill="#5C7A4E"/>
  <circle cx="200" cy="35" r="3" fill="#5C7A4E"/>
  <circle cx="220" cy="65" r="3" fill="#5C7A4E"/>
</svg>
