<svg xmlns="http://www.w3.org/2000/svg" viewBox="0 0 240 100" width="240" height="100">
  <rect width="240" height="100" fill="#faf7f2" rx="8"/>
  <line x1="10" y1="35" x2="230" y2="35" stroke="#e8ddd0" stroke-width="1.5"/>
  <line x1="10" y1="65" x2="230" y2="65" stroke="#e8ddd0" stroke-width="1.5"/>
  <!-- triple zigzag: each "tooth" is 3 short stitches -->
  <polyline points="18,65 24,57 30,65 36,43 42,35 48,43 54,65 60,57 66,65 72,43 78,35 84,43 90,65 96,57 102,65 108,43 114,35 120,43 126,65 132,57 138,65 144,43 150,35 156,43 162,65 168,57 174,65 180,43 186,35 192,43 198,65 204,57 210,65"
    fill="none" stroke="#5C7A4E" stroke-width="2" stroke-linejoin="round" stroke-linecap="round"/>
</svg>
