<svg xmlns="http://www.w3.org/2000/svg" viewBox="0 0 240 100" width="240" height="100">
  <rect width="240" height="100" fill="#faf7f2" rx="8"/>
  <line x1="10" y1="32" x2="230" y2="32" stroke="#e8ddd0" stroke-width="1.5"/>
  <line x1="10" y1="68" x2="230" y2="68" stroke="#e8ddd0" stroke-width="1.5"/>
  <!-- dense zigzag = satin stitch -->
  <g stroke="#5C7A4E" stroke-width="1.8" opacity="0.9">
    <line x1="20" y1="32" x2="20" y2="68"/>
    <line x1="23" y1="68" x2="23" y2="32"/>
    <line x1="26" y1="32" x2="26" y2="68"/>
    <line x1="29" y1="68" x2="29" y2="32"/>
    <line x1="32" y1="32" x2="32" y2="68"/>
    <line x1="35" y1="68" x2="35" y2="32"/>
    <line x1="38" y1="32" x2="38" y2="68"/>
    <line x1="41" y1="68" x2="41" y2="32"/>
    <line x1="44" y1="32" x2="44" y2="68"/>
    <line x1="47" y1="68" x2="47" y2="32"/>
    <line x1="50" y1="32" x2="50" y2="68"/>
    <line x1="53" y1="68" x2="53" y2="32"/>
    <line x1="56" y1="32" x2="56" y2="68"/>
    <line x1="59" y1="68" x2="59" y2="32"/>
    <line x1="62" y1="32" x2="62" y2="68"/>
    <line x1="65" y1="68" x2="65" y2="32"/>
    <line x1="68" y1="32" x2="68" y2="68"/>
    <line x1="71" y1="68" x2="71" y2="32"/>
    <line x1="74" y1="32" x2="74" y2="68"/>
    <line x1="77" y1="68" x2="77" y2="32"/>
    <line x1="80" y1="32" x2="80" y2="68"/>
    <line x1="83" y1="68" x2="83" y2="32"/>
    <line x1="86" y1="32" x2="86" y2="68"/>
    <line x1="89" y1="68" x2="89" y2="32"/>
    <line x1="92" y1="32" x2="92" y2="68"/>
    <line x1="95" y1="68" x2="95" y2="32"/>
    <line x1="98" y1="32" x2="98" y2="68"/>
    <line x1="101" y1="68" x2="101" y2="32"/>
    <line x1="104" y1="32" x2="104" y2="68"/>
    <line x1="107" y1="68" x2="107" y2="32"/>
    <line x1="110" y1="32" x2="110" y2="68"/>
    <line x1="113" y1="68" x2="113" y2="32"/>
    <line x1="116" y1="32" x2="116" y2="68"/>
    <line x1="119" y1="68" x2="119" y2="32"/>
    <line x1="122" y1="32" x2="122" y2="68"/>
    <line x1="125" y1="68" x2="125" y2="32"/>
    <line x1="128" y1="32" x2="128" y2="68"/>
    <line x1="131" y1="68" x2="131" y2="32"/>
    <line x1="134" y1="32" x2="134" y2="68"/>
    <line x1="137" y1="68" x2="137" y2="32"/>
    <line x1="140" y1="32" x2="140" y2="68"/>
    <line x1="143" y1="68" x2="143" y2="32"/>
    <line x1="146" y1="32" x2="146" y2="68"/>
    <line x1="149" y1="68" x2="149" y2="32"/>
    <line x1="152" y1="32" x2="152" y2="68"/>
    <line x1="155" y1="68" x2="155" y2="32"/>
    <line x1="158" y1="32" x2="158" y2="68"/>
    <line x1="161" y1="68" x2="161" y2="32"/>
    <line x1="164" y1="32" x2="164" y2="68"/>
    <line x1="167" y1="68" x2="167" y2="32"/>
    <line x1="170" y1="32" x2="170" y2="68"/>
    <line x1="173" y1="68" x2="173" y2="32"/>
    <line x1="176" y1="32" x2="176" y2="68"/>
    <line x1="179" y1="68" x2="179" y2="32"/>
    <line x1="182" y1="32" x2="182" y2="68"/>
    <line x1="185" y1="68" x2="185" y2="32"/>
    <line x1="188" y1="32" x2="188" y2="68"/>
    <line x1="191" y1="68" x2="191" y2="32"/>
    <line x1="194" y1="32" x2="194" y2="68"/>
    <line x1="197" y1="68" x2="197" y2="32"/>
    <line x1="200" y1="32" x2="200" y2="68"/>
    <line x1="203" y1="68" x2="203" y2="32"/>
    <line x1="206" y1="32" x2="206" y2="68"/>
    <line x1="209" y1="68" x2="209" y2="32"/>
    <line x1="212" y1="32" x2="212" y2="68"/>
    <line x1="215" y1="68" x2="215" y2="32"/>
    <line x1="218" y1="32" x2="218" y2="68"/>
  </g>
</svg>
