<svg xmlns="http://www.w3.org/2000/svg" viewBox="0 0 240 100" width="240" height="100">
  <rect width="240" height="100" fill="#faf7f2" rx="8"/>
  <line x1="10" y1="30" x2="230" y2="30" stroke="#e8ddd0" stroke-width="1"/>
  <line x1="10" y1="50" x2="230" y2="50" stroke="#e8ddd0" stroke-width="1"/>
  <line x1="10" y1="70" x2="230" y2="70" stroke="#e8ddd0" stroke-width="1"/>
  <!-- cross stitch X pattern -->
  <g stroke="#7A4E7A" stroke-width="2" stroke-linecap="round">
    <line x1="25" y1="32" x2="40" y2="48"/> <line x1="40" y1="32" x2="25" y2="48"/>
    <line x1="52" y1="32" x2="67" y2="48"/> <line x1="67" y1="32" x2="52" y2="48"/>
    <line x1="79" y1="32" x2="94" y2="48"/> <line x1="94" y1="32" x2="79" y2="48"/>
    <line x1="106" y1="32" x2="121" y2="48"/> <line x1="121" y1="32" x2="106" y2="48"/>
    <line x1="133" y1="32" x2="148" y2="48"/> <line x1="148" y1="32" x2="133" y2="48"/>
    <line x1="160" y1="32" x2="175" y2="48"/> <line x1="175" y1="32" x2="160" y2="48"/>
    <line x1="187" y1="32" x2="202" y2="48"/> <line x1="202" y1="32" x2="187" y2="48"/>
    <!-- second row offset -->
    <line x1="38" y1="52" x2="53" y2="68"/> <line x1="53" y1="52" x2="38" y2="68"/>
    <line x1="65" y1="52" x2="80" y2="68"/> <line x1="80" y1="52" x2="65" y2="68"/>
    <line x1="92" y1="52" x2="107" y2="68"/> <line x1="107" y1="52" x2="92" y2="68"/>
    <line x1="119" y1="52" x2="134" y2="68"/> <line x1="134" y1="52" x2="119" y2="68"/>
    <line x1="146" y1="52" x2="161" y2="68"/> <line x1="161" y1="52" x2="146" y2="68"/>
    <line x1="173" y1="52" x2="188" y2="68"/> <line x1="188" y1="52" x2="173" y2="68"/>
    <line x1="200" y1="52" x2="215" y2="68"/> <line x1="215" y1="52" x2="200" y2="68"/>
  </g>
</svg>
